<?xml version="1.0" encoding="UTF-8" standalone="no"?> <svg xmlns="http://www.w3.org/2000/svg" xmlns:xlink="http://www.w3.org/1999/xlink" xmlns:serif="http://www.serif.com/" width="100%" height="100%" viewBox="0 0 402 130" version="1.1" xml:space="preserve" style="fill-rule:evenodd;clip-rule:evenodd;stroke-linejoin:round;stroke-miterlimit:2;"> <g transform="matrix(1,0,0,1,-79.8993,-563.249)"> <g transform="matrix(1,0,0,1,-238.237,364.203)"> <path d="M413.445,248.371C415.335,250.862 416.625,254.413 417.315,259.034C420.156,277.868 422.937,297.033 425.657,316.527C425.827,317.737 425.517,318.818 424.737,319.768L423.067,321.798C422.507,322.489 422.157,322.389 422.027,321.508C418.056,294.702 414.675,272.727 411.884,255.573C411.194,251.332 408.143,248.061 403.762,248.622C393.34,249.962 383.248,251.182 373.495,252.292C369.504,252.742 366.524,253.573 364.543,254.803C359.422,257.974 356.381,263.675 357.192,269.736C360.022,290.851 362.593,309.866 364.903,326.76C365.053,327.86 364.203,328.83 363.093,328.83L318.523,328.83C318.243,328.83 318.053,328.54 318.173,328.28C332.586,295.892 346.649,264.345 360.342,233.628C369.254,213.624 389.109,199.43 411.144,199.15C419.216,199.05 427.098,199.02 434.789,199.07C435.16,199.07 435.34,199.26 435.34,199.63C435.35,231.088 435.35,262.605 435.33,294.162C435.33,298.643 434.589,302.894 433.099,306.925C432.729,307.935 432.469,307.905 432.329,306.835C430.498,292.342 428.338,277.438 425.827,262.135C425.137,257.934 424.217,255.083 423.077,253.593C421.006,250.872 417.876,249.002 413.705,247.981C413.255,247.871 413.165,248.001 413.445,248.371ZM377.916,230.547L379.487,247.841C379.507,248.041 379.687,248.181 379.877,248.141L382.397,247.691C382.547,247.661 382.607,247.581 382.587,247.431L380.927,229.777C380.897,229.447 381.047,229.267 381.367,229.217L400.282,226.266C400.582,226.226 400.862,226.436 400.892,226.737L402.732,244.181C402.782,244.681 403.062,244.901 403.572,244.851L405.123,244.671C405.653,244.611 405.883,244.321 405.823,243.79L403.942,226.306C403.892,225.776 404.122,225.536 404.653,225.576C404.963,225.606 405.253,225.556 405.543,225.446C406.673,225.006 407.193,224.196 407.103,223.026C407.093,222.876 407.053,222.736 406.983,222.606C406.433,221.615 405.603,221.205 404.483,221.375L374.336,226.046C373.795,226.126 373.325,226.446 373.045,226.917C372.625,227.617 372.505,228.227 372.685,228.747C373.075,229.837 373.835,230.297 374.976,230.147L377.066,229.867C377.586,229.797 377.866,230.027 377.916,230.547ZM388.299,243.39C388.209,243.4 388.129,243.45 388.069,243.53L385.958,246.491C385.778,246.741 385.978,247.081 386.288,247.041L399.111,245.401C399.411,245.361 399.521,244.981 399.291,244.791L396.331,242.25C396.251,242.18 396.151,242.15 396.051,242.17L388.299,243.39Z" style="fill:currentColor;fill-rule:nonzero;"></path> </g> <g transform="matrix(1.02385,0,0,1.02385,-249.072,355.964)"> <g transform="matrix(0.806048,0,0,0.806048,90.8117,54.3809)"> <path d="M661.272,185.957C669.674,189.758 671.984,198.58 671.934,207.172C671.854,221.895 671.834,238.069 671.884,255.693C671.894,259.284 671.014,262.785 669.243,266.196C665.052,274.297 656.53,276.758 647.888,276.058C632.765,274.818 628.594,264.385 628.614,250.762C628.644,235.569 628.654,220.865 628.644,206.652C628.634,204.161 629.024,201.401 629.804,198.36C631.815,190.548 636.666,185.877 644.358,184.347C650.549,183.117 656.18,183.657 661.272,185.957ZM657.621,203.881C657.621,199.99 654.46,196.83 650.569,196.83L650.209,196.83C646.318,196.83 643.157,199.99 643.157,203.881L643.157,256.013C643.157,259.904 646.318,263.065 650.209,263.065L650.569,263.065C654.46,263.065 657.621,259.904 657.621,256.013L657.621,203.881Z" style="fill:currentColor;fill-rule:nonzero;"></path> </g> </g> <g transform="matrix(1.02385,0,0,1.02385,-249.072,355.964)"> <g transform="matrix(0.806048,0,0,0.806048,90.8117,54.3809)"> <path d="M464.746,259.104L462.386,274.778C462.366,274.948 462.226,275.068 462.056,275.068L449.463,275.068C449.253,275.068 449.093,274.878 449.123,274.678L463.456,185.087C463.486,184.917 463.626,184.797 463.796,184.797L484.191,184.797C484.361,184.797 484.501,184.917 484.531,185.087L498.864,274.678C498.894,274.878 498.734,275.068 498.524,275.068L484.641,275.068C484.471,275.068 484.331,274.948 484.311,274.778L481.95,259.104C481.93,258.934 481.79,258.814 481.62,258.814L465.076,258.814C464.906,258.814 464.766,258.934 464.746,259.104ZM473.878,205.452C473.688,204.261 473.608,203.091 473.628,201.941C473.628,201.891 473.608,201.871 473.558,201.871L473.288,201.861C473.198,201.851 473.148,201.891 473.138,201.981L466.727,245.651C466.657,246.091 466.847,246.311 467.297,246.311L479.34,246.311C479.74,246.311 479.91,246.111 479.85,245.721C477.899,232.148 475.909,218.725 473.878,205.452Z" style="fill:currentColor;fill-rule:nonzero;"></path> </g> </g> <g transform="matrix(1.02385,0,0,1.02385,-249.072,355.964)"> <g transform="matrix(0.806048,0,0,0.806048,90.8117,54.3809)"> <path d="M519.619,274.698C519.619,274.898 519.449,275.068 519.249,275.068L505.486,275.068C505.286,275.068 505.116,274.898 505.116,274.698L505.116,185.177C505.116,184.977 505.286,184.807 505.486,184.807L519.249,184.807C519.449,184.807 519.619,184.977 519.619,185.177L519.619,274.698Z" style="fill:currentColor;fill-rule:nonzero;"></path> </g> </g> <g transform="matrix(1.02385,0,0,1.02385,-249.072,355.964)"> <g transform="matrix(0.806048,0,0,0.806048,90.8117,54.3809)"> <path d="M544.125,239.119L544.125,274.568C544.125,274.898 543.955,275.068 543.625,275.068L530.121,275.068C529.791,275.068 529.621,274.898 529.621,274.568L529.621,185.487C529.621,185.097 529.821,184.897 530.211,184.887C541.944,184.637 550.106,184.677 554.707,185.007C565.129,185.757 570.851,190.938 571.881,200.551C572.291,204.391 572.341,209.553 572.031,216.044C571.711,222.896 568.87,227.817 563.499,230.807C563.319,230.907 563.329,231.168 563.519,231.258C569.631,234.058 572.121,240.48 572.271,246.791C572.411,252.742 572.461,259.414 572.431,266.796C572.421,269.206 572.841,271.797 573.701,274.558C573.811,274.898 573.681,275.068 573.331,275.068L559.868,275.068C559.518,275.068 559.268,274.908 559.138,274.588C558.498,273.077 558.148,271.467 558.098,269.756C557.878,262.455 557.798,255.193 557.848,247.981C557.888,243.39 556.217,240.44 552.847,239.129C550.316,238.149 547.475,238.729 544.795,238.499C544.345,238.459 544.125,238.669 544.125,239.119ZM544.055,198.11L544.195,224.976C544.195,225.156 544.345,225.306 544.535,225.306L550.646,225.276C554.677,225.256 557.918,221.755 557.898,217.454L557.838,205.472C557.818,201.181 554.527,197.71 550.506,197.73L544.395,197.76C544.205,197.77 544.055,197.92 544.055,198.11Z" style="fill:currentColor;fill-rule:nonzero;"></path> </g> </g> <g transform="matrix(1.02385,0,0,1.02385,-249.072,355.964)"> <g transform="matrix(0.806048,0,0,0.806048,90.8117,54.3809)"> <path d="M595.887,242L595.887,274.568C595.887,274.898 595.717,275.068 595.386,275.068L581.883,275.068C581.553,275.068 581.383,274.898 581.383,274.568L581.383,185.337C581.383,184.957 581.573,184.767 581.953,184.777C588.025,184.847 594.646,184.837 601.798,184.757C615.311,184.607 622.523,191.088 623.453,204.201C623.803,209.052 623.823,214.684 623.513,221.085C622.983,232.528 617.702,239.129 607.669,240.89C604.068,241.52 600.278,241.3 596.627,241.27C596.137,241.26 595.887,241.51 595.887,242ZM595.736,198.5L595.837,227.387C595.837,227.797 596.167,228.117 596.567,228.117L602.878,228.097C606.409,228.087 609.25,225.036 609.24,221.295L609.18,204.511C609.17,200.761 606.299,197.74 602.778,197.75L596.467,197.77C596.057,197.77 595.736,198.1 595.736,198.5Z" style="fill:currentColor;fill-rule:nonzero;"></path> </g> </g> <g transform="matrix(1.02385,0,0,1.02385,-249.072,355.964)"> <g transform="matrix(0.806048,0,0,0.806048,90.8117,54.3809)"> <path d="M714.994,231.348C721.615,234.538 723.416,241.38 723.576,248.632C723.706,254.903 723.726,261.204 723.656,267.516C723.626,269.726 724.106,272.237 724.926,274.327C725.116,274.818 724.956,275.068 724.426,275.068L710.883,275.068C710.563,275.068 710.273,274.848 710.193,274.538C709.483,271.707 709.143,268.806 709.153,265.826C709.183,259.714 709.173,253.843 709.123,248.231C709.053,238.749 703.241,238.149 695.619,238.589C695.309,238.609 695.159,238.769 695.159,239.079L695.159,274.568C695.159,274.898 694.989,275.068 694.659,275.068L681.406,275.068C681.076,275.068 680.906,274.898 680.906,274.568L680.906,185.337C680.906,184.957 681.096,184.767 681.476,184.777C688.228,184.827 695.089,184.827 702.081,184.757C713.434,184.657 722.216,188.828 723.216,201.661C723.566,206.122 723.606,210.833 723.316,215.804C722.906,222.816 720.125,227.757 714.974,230.637C714.524,230.887 714.534,231.128 714.994,231.348ZM695.209,198.24L695.109,224.806C695.109,225.076 695.329,225.296 695.599,225.296L701.741,225.316C705.792,225.326 709.083,221.865 709.103,217.564L709.143,205.562C709.163,201.271 705.892,197.78 701.841,197.77L695.699,197.75C695.429,197.75 695.209,197.97 695.209,198.24Z" style="fill:currentColor;fill-rule:nonzero;"></path> </g> </g> <g transform="matrix(1.02385,0,0,1.02385,-249.072,355.964)"> <g transform="matrix(0.806048,0,0,0.806048,90.8117,54.3809)"> <path d="M757.674,198.16L757.674,274.708C757.674,274.908 757.514,275.068 757.314,275.068L743.53,275.068C743.33,275.068 743.17,274.908 743.17,274.708L743.17,198.16C743.17,197.96 743.01,197.8 742.81,197.8L728.777,197.8C728.577,197.8 728.417,197.64 728.417,197.44L728.417,185.157C728.417,184.957 728.577,184.797 728.777,184.797L772.077,184.797C772.277,184.797 772.437,184.957 772.437,185.157L772.427,197.44C772.427,197.64 772.267,197.8 772.067,197.8L758.034,197.8C757.834,197.8 757.674,197.96 757.674,198.16Z" style="fill:currentColor;fill-rule:nonzero;"></path> </g> </g> <g transform="matrix(1.2598,0,0,1.2598,-358.099,286.022)"> <g transform="matrix(0.806048,0,0,0.806048,90.8117,54.3809)"> <path d="M496.615,324.051C496.624,329.14 492.503,333.281 487.409,333.289L485.629,333.293C480.54,333.301 476.399,329.18 476.391,324.086L476.347,299.341C476.339,294.252 480.46,290.111 485.553,290.103L487.334,290.1C492.423,290.091 496.564,294.212 496.572,299.306L496.615,324.051ZM489.811,299.627C489.812,297.823 488.342,296.373 486.545,296.372L486.365,296.373C484.561,296.373 483.111,297.843 483.109,299.639L483.152,323.785C483.151,325.589 484.621,327.04 486.418,327.04L486.598,327.039C488.402,327.04 489.852,325.569 489.853,323.773L489.811,299.627Z" style="fill:currentColor;fill-rule:nonzero;"></path> </g> </g> <g transform="matrix(1.2598,0,0,1.2598,-358.099,286.022)"> <g transform="matrix(0.806048,0,0,0.806048,90.8117,54.3809)"> <path d="M513.698,326.589C517.118,328.03 519.099,325.429 518.609,322.278C518.259,320.018 517.248,318.088 515.578,316.487C510.267,311.396 505.146,307.845 505.826,299.323C506.186,294.812 508.026,291.962 511.357,290.781C514.278,289.741 517.178,289.791 520.049,290.921C523.8,292.392 525.58,295.892 525.4,301.424C525.38,302.024 525.07,302.324 524.47,302.324L519.589,302.314C518.939,302.314 518.689,302.004 518.819,301.374C520.189,294.542 511.057,294.662 512.747,301.874C513.208,303.824 514.128,305.455 515.518,306.785C519.549,310.656 524.4,314.177 525.25,320.088C526.411,328.09 522.91,334.221 513.778,333.171C506.516,332.331 505.066,326.189 505.696,320.018C505.706,319.888 505.776,319.828 505.906,319.828L511.887,319.828C512.047,319.828 512.177,319.968 512.157,320.128C511.757,323.839 512.267,325.989 513.698,326.589Z" style="fill:currentColor;fill-rule:nonzero;"></path> </g> </g> <g transform="matrix(1.2598,0,0,1.2598,-358.099,286.022)"> <g transform="matrix(0.806048,0,0,0.806048,42.4851,54.3809)"> <path d="M669.914,324.079C669.914,329.17 665.783,333.301 660.691,333.301L658.931,333.301C653.84,333.301 649.709,329.17 649.709,324.079L649.709,299.313C649.709,294.222 653.84,290.091 658.931,290.091L660.691,290.091C665.783,290.091 669.914,294.222 669.914,299.313L669.914,324.079ZM663.142,299.493C663.142,297.743 661.732,296.333 659.981,296.333L659.821,296.333C658.071,296.333 656.661,297.743 656.661,299.493L656.661,323.899C656.661,325.649 658.071,327.06 659.821,327.06L659.981,327.06C661.732,327.06 663.142,325.649 663.142,323.899L663.142,299.493Z" style="fill:currentColor;fill-rule:nonzero;"></path> </g> </g> <g transform="matrix(1.2598,0,0,1.2598,-358.099,286.022)"> <g transform="matrix(0.806048,0,0,0.806048,90.8117,54.3809)"> <path d="M457.655,326.569L468.057,326.579C468.227,326.579 468.357,326.71 468.357,326.88L468.347,332.531C468.347,332.701 468.217,332.831 468.047,332.831L450.903,332.831C450.733,332.831 450.603,332.701 450.603,332.531L450.603,290.871C450.603,290.701 450.733,290.571 450.903,290.571L457.055,290.571C457.225,290.571 457.355,290.701 457.355,290.871L457.355,326.269C457.355,326.439 457.485,326.569 457.655,326.569Z" style="fill:currentColor;fill-rule:nonzero;"></path> </g> </g> <g transform="matrix(1.2598,0,0,1.2598,-358.099,286.022)"> <g transform="matrix(0.806048,0,0,0.806048,90.8117,54.3809)"> <path d="M546.875,297.123L546.875,332.531C546.875,332.701 546.745,332.831 546.575,332.831L540.174,332.831C540.004,332.831 539.874,332.701 539.874,332.531L539.874,297.123C539.874,296.953 539.744,296.823 539.574,296.823L533.422,296.823C533.252,296.823 533.122,296.693 533.122,296.523L533.122,290.871C533.122,290.701 533.252,290.571 533.422,290.571L553.327,290.571C553.497,290.571 553.627,290.701 553.627,290.871L553.627,296.523C553.627,296.693 553.497,296.823 553.327,296.823L547.175,296.823C547.005,296.823 546.875,296.953 546.875,297.123Z" style="fill:currentColor;fill-rule:nonzero;"></path> </g> </g> <g transform="matrix(1.2598,0,0,1.2598,-358.099,286.022)"> <g transform="matrix(0.806048,0,0,0.806048,42.4851,54.3809)"> <path d="M630.645,315.867L630.645,332.531C630.645,332.701 630.514,332.831 630.344,332.831L623.943,332.831C623.773,332.831 623.643,332.701 623.643,332.531L623.643,290.871C623.643,290.701 623.773,290.571 623.943,290.571L641.097,290.571C641.267,290.571 641.397,290.701 641.397,290.871L641.387,296.523C641.387,296.693 641.257,296.823 641.087,296.823L630.945,296.823C630.775,296.823 630.645,296.953 630.645,297.123L630.645,309.025C630.645,309.195 630.775,309.326 630.945,309.326L638.836,309.326C639.006,309.326 639.136,309.456 639.136,309.626L639.146,315.287C639.146,315.447 639.006,315.587 638.846,315.587L630.945,315.567C630.775,315.567 630.645,315.697 630.645,315.867Z" style="fill:currentColor;fill-rule:nonzero;"></path> </g> </g> <g transform="matrix(1.2598,0,0,1.2598,-358.099,286.022)"> <g transform="matrix(0.806048,0,0,0.806048,42.4851,54.3809)"> <path d="M688.568,326.689C688.978,326.99 689.408,327.13 689.858,327.1C692.059,326.97 693.159,325.809 693.159,323.599L693.159,290.821C693.159,290.681 693.269,290.571 693.409,290.571L699.4,290.571C699.6,290.571 699.7,290.671 699.7,290.881C699.6,299.913 699.61,309.666 699.74,320.118C699.83,327.87 697.8,333.841 688.708,333.311C681.856,332.911 679.476,327.9 679.636,321.828C679.906,311.526 679.646,301.134 679.656,290.851C679.656,290.701 679.786,290.571 679.936,290.571L686.407,290.571C686.547,290.571 686.657,290.681 686.657,290.821L686.657,323.009C686.657,324.569 687.298,325.799 688.568,326.689Z" style="fill:currentColor;fill-rule:nonzero;"></path> </g> </g> <g transform="matrix(1.2598,0,0,1.2598,-358.099,286.022)"> <g transform="matrix(0.806048,0,0,0.806048,42.4851,54.3809)"> <path d="M724.906,313.907L724.916,290.821C724.916,290.691 725.026,290.581 725.166,290.571L730.668,290.571C730.808,290.571 730.918,290.681 730.918,290.821L730.918,332.331C730.918,332.611 730.698,332.831 730.417,332.831L724.446,332.831C724.156,332.831 723.896,332.631 723.816,332.341L716.264,304.024C716.034,303.154 715.914,303.164 715.914,304.064L715.914,332.581C715.914,332.751 715.834,332.831 715.664,332.831L710.163,332.831C710.023,332.831 709.913,332.721 709.913,332.581L709.913,291.071C709.913,290.791 710.133,290.571 710.413,290.571L717.735,290.571C718.115,290.571 718.355,290.761 718.455,291.131L724.506,313.957C724.776,314.987 724.906,314.967 724.906,313.907Z" style="fill:currentColor;fill-rule:nonzero;"></path> </g> </g> <g transform="matrix(1.2598,0,0,1.2598,-358.099,286.022)"> <g transform="matrix(0.806048,0,0,0.806048,42.4851,54.3809)"> <path d="M741.42,290.891C741.42,290.701 741.57,290.551 741.76,290.551L752.813,290.551C757.864,290.551 761.965,294.702 761.965,299.833L761.965,323.579C761.965,328.71 757.864,332.861 752.813,332.861L741.76,332.861C741.57,332.861 741.42,332.711 741.42,332.521L741.42,290.891ZM748.172,297.263L748.172,326.149C748.172,326.399 748.382,326.609 748.632,326.609L751.692,326.609C753.613,326.609 755.173,324.999 755.173,323.009L755.173,300.403C755.173,298.413 753.613,296.803 751.692,296.803L748.632,296.803C748.382,296.803 748.172,297.013 748.172,297.263Z" style="fill:currentColor;fill-rule:nonzero;"></path> </g> </g> </g> </svg> 